<?xml version="1.0" encoding="UTF-8"?>
<svg width="42px" height="41px" viewBox="0 0 42 41" version="1.1" xmlns="http://www.w3.org/2000/svg" xmlns:xlink="http://www.w3.org/1999/xlink">
    <!-- Generator: Sketch 52.3 (67297) - http://www.bohemiancoding.com/sketch -->
    <title>baseline-notifications_active-24px copy</title>
    <desc>Created with Sketch.</desc>
    <g id="Marketing-Site-v_2" stroke="none" stroke-width="1" fill="none" fill-rule="evenodd">
        <g id="Homepage-" transform="translate(-291.000000, -1143.000000)">
            <g id="baseline-notifications_active-24px-copy" transform="translate(287.000000, 1138.000000)">
                <polygon id="Shape" points="0 0 50 0 50 50 0 50"></polygon>
                <path d="M15.7916667,8.5 L12.8125,5.52083333 C7.8125,9.33333333 4.52083333,15.2083333 4.22916667,21.875 L8.39583333,21.875 C8.70833333,16.3541667 11.5416667,11.5208333 15.7916667,8.5 Z M41.6041667,21.875 L45.7708333,21.875 C45.4583333,15.2083333 42.1666667,9.33333333 37.1875,5.52083333 L34.2291667,8.5 C38.4375,11.5208333 41.2916667,16.3541667 41.6041667,21.875 Z M37.5,22.9166667 C37.5,16.5208333 34.0833333,11.1666667 28.125,9.75 L28.125,8.33333333 C28.125,6.60416667 26.7291667,5.20833333 25,5.20833333 C23.2708333,5.20833333 21.875,6.60416667 21.875,8.33333333 L21.875,9.75 C15.8958333,11.1666667 12.5,16.5 12.5,22.9166667 L12.5,33.3333333 L8.33333333,37.5 L8.33333333,39.5833333 L41.6666667,39.5833333 L41.6666667,37.5 L37.5,33.3333333 L37.5,22.9166667 Z M25,45.8333333 C25.2916667,45.8333333 25.5625,45.8125 25.8333333,45.75 C27.1875,45.4583333 28.2916667,44.5416667 28.8333333,43.2916667 C29.0416667,42.7916667 29.1458333,42.25 29.1458333,41.6666667 L20.8125,41.6666667 C20.8333333,43.9583333 22.6875,45.8333333 25,45.8333333 Z" id="Shape" fill="#269DDD" fill-rule="nonzero"></path>
            </g>
        </g>
    </g>
</svg>