<?xml version="1.0" encoding="UTF-8"?>
<svg width="42px" height="33px" viewBox="0 0 42 33" version="1.1" xmlns="http://www.w3.org/2000/svg" xmlns:xlink="http://www.w3.org/1999/xlink">
    <!-- Generator: Sketch 52.3 (67297) - http://www.bohemiancoding.com/sketch -->
    <title>baseline-folder_open-24px copy</title>
    <desc>Created with Sketch.</desc>
    <g id="Marketing-Site-v_2" stroke="none" stroke-width="1" fill="none" fill-rule="evenodd">
        <g id="Homepage-" transform="translate(-1108.000000, -1146.000000)">
            <g id="Group-17" transform="translate(945.000000, 1106.000000)">
                <g id="baseline-folder_open-24px-copy" transform="translate(159.000000, 32.000000)">
                    <polygon id="Shape" points="0 0 50 0 50 50 0 50"></polygon>
                    <path d="M41.8,12.125 L25,12.125 L20.8,8 L8.2,8 C5.89,8 4.021,9.85625 4.021,12.125 L4,36.875 C4,39.14375 5.89,41 8.2,41 L41.8,41 C44.11,41 46,39.14375 46,36.875 L46,16.25 C46,13.98125 44.11,12.125 41.8,12.125 Z M41.8,36.875 L8.2,36.875 L8.2,16.25 L41.8,16.25 L41.8,36.875 Z" id="Shape" fill="#269DDD" fill-rule="nonzero"></path>
                </g>
            </g>
        </g>
    </g>
</svg>