<?xml version="1.0" encoding="UTF-8"?>
<svg width="42px" height="42px" viewBox="0 0 42 42" version="1.1" xmlns="http://www.w3.org/2000/svg" xmlns:xlink="http://www.w3.org/1999/xlink">
    <!-- Generator: Sketch 52.3 (67297) - http://www.bohemiancoding.com/sketch -->
    <title>baseline-library_books-24px copy</title>
    <desc>Created with Sketch.</desc>
    <g id="Marketing-Site-v_2" stroke="none" stroke-width="1" fill="none" fill-rule="evenodd">
        <g id="Homepage-" transform="translate(-698.000000, -1142.000000)">
            <g id="baseline-library_books-24px-copy" transform="translate(694.000000, 1138.000000)">
                <polygon id="Shape" points="0 0 50 0 50 50 0 50"></polygon>
                <path d="M8.33333333,12.5 L4.16666667,12.5 L4.16666667,41.6666667 C4.16666667,43.9583333 6.04166667,45.8333333 8.33333333,45.8333333 L37.5,45.8333333 L37.5,41.6666667 L8.33333333,41.6666667 L8.33333333,12.5 Z M41.6666667,4.16666667 L16.6666667,4.16666667 C14.375,4.16666667 12.5,6.04166667 12.5,8.33333333 L12.5,33.3333333 C12.5,35.625 14.375,37.5 16.6666667,37.5 L41.6666667,37.5 C43.9583333,37.5 45.8333333,35.625 45.8333333,33.3333333 L45.8333333,8.33333333 C45.8333333,6.04166667 43.9583333,4.16666667 41.6666667,4.16666667 Z M39.5833333,22.9166667 L18.75,22.9166667 L18.75,18.75 L39.5833333,18.75 L39.5833333,22.9166667 Z M31.25,31.25 L18.75,31.25 L18.75,27.0833333 L31.25,27.0833333 L31.25,31.25 Z M39.5833333,14.5833333 L18.75,14.5833333 L18.75,10.4166667 L39.5833333,10.4166667 L39.5833333,14.5833333 Z" id="Shape" fill="#269DDD" fill-rule="nonzero"></path>
            </g>
        </g>
    </g>
</svg>